<svg width="40" height="40" viewBox="0 0 40 40" fill="none" xmlns="http://www.w3.org/2000/svg">
<rect x="0.5" y="0.5" width="39" height="39" rx="19.5" fill="url(#paint0_linear_1748_1818)" stroke="#3CA9DA"/>
<path d="M20.0003 28.4139V31.7242M20.0003 28.4139C22.0123 28.4139 23.9418 27.6001 25.3645 26.1515C26.7872 24.703 27.5865 22.7383 27.5865 20.6898V18.4829M20.0003 28.4139C17.9883 28.4139 16.0587 27.6001 14.636 26.1515C13.2133 24.703 12.4141 22.7383 12.4141 20.6898V18.4829M20.0003 9.65527C21.7959 9.65527 23.2515 11.1374 23.2515 12.9656V20.6898C23.2515 22.518 21.7959 24.0001 20.0003 24.0001C18.2047 24.0001 16.749 22.518 16.749 20.6898V12.9656C16.749 11.1374 18.2047 9.65527 20.0003 9.65527Z" stroke="white" stroke-width="2" stroke-linecap="round" stroke-linejoin="round"/>
<defs>
<linearGradient id="paint0_linear_1748_1818" x1="20" y1="0" x2="20" y2="40" gradientUnits="userSpaceOnUse">
<stop stop-color="#323FF7"/>
<stop offset="1" stop-color="#60C2EE"/>
</linearGradient>
</defs>
</svg>
