<svg width="57" height="57" viewBox="0 0 57 57" fill="none" xmlns="http://www.w3.org/2000/svg">
<circle cx="28.5" cy="28.5" r="28.5" fill="url(#paint0_linear_1748_1830)"/>
<path d="M33.3333 30.8V33.88L35.6444 35.28M33.3333 16.8H36.2222C36.9884 16.8 37.7232 17.095 38.265 17.6201C38.8067 18.1452 39.1111 18.8574 39.1111 19.6V20.7648M21.7778 16.8H18.8889C18.1227 16.8 17.3879 17.095 16.8461 17.6201C16.3044 18.1452 16 18.8574 16 19.6V39.2C16 39.9426 16.3044 40.6548 16.8461 41.1799C17.3879 41.705 18.1227 42 18.8889 42H21.7778M42 33.6C42 38.2392 38.1198 42 33.3333 42C28.5469 42 24.6667 38.2392 24.6667 33.6C24.6667 28.9608 28.5469 25.2 33.3333 25.2C38.1198 25.2 42 28.9608 42 33.6ZM23.2222 14H31.8889C32.6866 14 33.3333 14.6268 33.3333 15.4V18.2C33.3333 18.9732 32.6866 19.6 31.8889 19.6H23.2222C22.4245 19.6 21.7778 18.9732 21.7778 18.2V15.4C21.7778 14.6268 22.4245 14 23.2222 14Z" stroke="white" stroke-width="2.5" stroke-linecap="round" stroke-linejoin="round"/>
<defs>
<linearGradient id="paint0_linear_1748_1830" x1="28.5" y1="0" x2="28.5" y2="57" gradientUnits="userSpaceOnUse">
<stop stop-color="#323FF7"/>
<stop offset="1" stop-color="#33AEE5"/>
</linearGradient>
</defs>
</svg>
