<svg width="57" height="57" viewBox="0 0 57 57" fill="none" xmlns="http://www.w3.org/2000/svg">
<circle cx="28.5" cy="28.5" r="28.5" fill="url(#paint0_linear_1748_1831)"/>
<path d="M33.66 26.8683C33.3599 27.1685 33.1913 27.5756 33.1913 28C33.1913 28.4244 33.3599 28.8315 33.66 29.1317L37.4632 32.9365C37.7634 33.2366 38.1704 33.4051 38.5949 33.4051C39.0193 33.4051 39.4264 33.2366 39.7265 32.9365L43.5313 29.1317C43.8314 28.8315 44 28.4244 44 28C44 27.5756 43.8314 27.1685 43.5313 26.8683L39.7265 23.0635C39.4264 22.7634 39.0193 22.5949 38.5949 22.5949C38.1704 22.5949 37.7634 22.7634 37.4632 23.0635L33.66 26.8683Z" stroke="white" stroke-width="2.5" stroke-linecap="round" stroke-linejoin="round"/>
<path d="M12.4687 26.8683C12.1686 27.1685 12 27.5756 12 28C12 28.4244 12.1686 28.8315 12.4687 29.1317L16.2735 32.9365C16.5736 33.2366 16.9807 33.4051 17.4051 33.4051C17.8296 33.4051 18.2366 33.2366 18.5368 32.9365L22.3416 29.1317C22.6417 28.8315 22.8103 28.4244 22.8103 28C22.8103 27.5756 22.6417 27.1685 22.3416 26.8683L18.5368 23.0635C18.2366 22.7634 17.8296 22.5949 17.4051 22.5949C16.9807 22.5949 16.5736 22.7634 16.2735 23.0635L12.4687 26.8683Z" stroke="white" stroke-width="2.5" stroke-linecap="round" stroke-linejoin="round"/>
<path d="M23.0635 37.4632C22.9147 37.6118 22.7966 37.7884 22.7161 37.9827C22.6355 38.177 22.5941 38.3853 22.5941 38.5957C22.5941 38.806 22.6355 39.0143 22.7161 39.2086C22.7966 39.4029 22.9147 39.5795 23.0635 39.7281L26.8683 43.5313C27.1685 43.8314 27.5756 44 28 44C28.4244 44 28.8315 43.8314 29.1317 43.5313L32.9365 39.7281C33.0853 39.5795 33.2034 39.4029 33.2839 39.2086C33.3645 39.0143 33.4059 38.806 33.4059 38.5957C33.4059 38.3853 33.3645 38.177 33.2839 37.9827C33.2034 37.7884 33.0853 37.6118 32.9365 37.4632L29.1317 33.66C28.8315 33.3599 28.4244 33.1913 28 33.1913C27.5756 33.1913 27.1685 33.3599 26.8683 33.66L23.0635 37.4632Z" stroke="white" stroke-width="2.5" stroke-linecap="round" stroke-linejoin="round"/>
<path d="M23.0635 16.2735C22.7634 16.5736 22.5949 16.9807 22.5949 17.4051C22.5949 17.8296 22.7634 18.2366 23.0635 18.5368L26.8683 22.34C27.1685 22.6401 27.5756 22.8087 28 22.8087C28.4244 22.8087 28.8315 22.6401 29.1317 22.34L32.9365 18.5368C33.2366 18.2366 33.4051 17.8296 33.4051 17.4051C33.4051 16.9807 33.2366 16.5736 32.9365 16.2735L29.1317 12.4687C28.8315 12.1686 28.4244 12 28 12C27.5756 12 27.1685 12.1686 26.8683 12.4687L23.0635 16.2735Z" stroke="white" stroke-width="2.5" stroke-linecap="round" stroke-linejoin="round"/>
<defs>
<linearGradient id="paint0_linear_1748_1831" x1="28.5" y1="0" x2="28.5" y2="57" gradientUnits="userSpaceOnUse">
<stop stop-color="#323FF7"/>
<stop offset="1" stop-color="#33AEE5"/>
</linearGradient>
</defs>
</svg>
