<svg width="57" height="57" viewBox="0 0 57 57" fill="none" xmlns="http://www.w3.org/2000/svg">
<circle cx="28.5" cy="28.5" r="28.5" fill="url(#paint0_linear_1748_1833)"/>
<path d="M14.891 31.2467H24.625L25.4 29.7775L28.5 36.389L31.5999 26.1044L33.9249 31.2467H42.0934M13 26.1044C13 24.4695 13.5233 22.873 14.5006 21.5259C15.4779 20.1787 16.8634 19.1442 18.474 18.5591C20.0846 17.974 21.8445 17.8657 23.5214 18.2486C25.1983 18.6315 26.7132 19.4875 27.866 20.7036C27.9472 20.7859 28.0454 20.8515 28.1544 20.8964C28.2635 20.9412 28.3811 20.9644 28.5 20.9644C28.6188 20.9644 28.7364 20.9412 28.8455 20.8964C28.9545 20.8515 29.0527 20.7859 29.1339 20.7036C30.2831 19.4796 31.7984 18.6164 33.478 18.2288C35.1576 17.8413 36.9218 17.9478 38.536 18.5343C40.1501 19.1207 41.5376 20.1592 42.5136 21.5115C43.4897 22.8639 44.0081 24.4659 43.9999 26.1044C43.9999 29.469 41.6749 31.9813 39.3499 34.1851L30.8373 41.9911C30.5485 42.3055 30.1924 42.5581 29.7927 42.732C29.393 42.906 28.9588 42.9973 28.519 42.9999C28.0792 43.0026 27.6438 42.9165 27.2418 42.7474C26.8398 42.5782 26.4804 42.33 26.1874 42.019L17.65 34.1851C15.325 31.9813 13 29.4836 13 26.1044Z" stroke="white" stroke-width="2.5" stroke-linecap="round" stroke-linejoin="round"/>
<defs>
<linearGradient id="paint0_linear_1748_1833" x1="28.5" y1="0" x2="28.5" y2="57" gradientUnits="userSpaceOnUse">
<stop stop-color="#323FF7"/>
<stop offset="1" stop-color="#33AEE5"/>
</linearGradient>
</defs>
</svg>
