<svg width="37" height="37" viewBox="0 0 37 37" fill="none" xmlns="http://www.w3.org/2000/svg">
<circle cx="18.5" cy="18.5" r="18.5" fill="white"/>
<path d="M21.3333 28V19.1577C21.3333 18.8645 21.2163 18.5834 21.0079 18.3761C20.7995 18.1688 20.5169 18.0524 20.2222 18.0524H15.7778C15.4831 18.0524 15.2005 18.1688 14.9921 18.3761C14.7837 18.5834 14.6667 18.8645 14.6667 19.1577V28M8 15.8418C7.99992 15.5202 8.07037 15.2025 8.20643 14.9108C8.34249 14.6191 8.54089 14.3605 8.78778 14.1529L16.5656 7.52223C16.9667 7.18501 17.4748 7 18 7C18.5252 7 19.0333 7.18501 19.4344 7.52223L27.2122 14.1529C27.4591 14.3605 27.6575 14.6191 27.7936 14.9108C27.9296 15.2025 28.0001 15.5202 28 15.8418V25.7894C28 26.3757 27.7659 26.938 27.3491 27.3525C26.9324 27.7671 26.3671 28 25.7778 28H10.2222C9.63285 28 9.06762 27.7671 8.65087 27.3525C8.23413 26.938 8 26.3757 8 25.7894V15.8418Z" stroke="url(#paint0_linear_1748_1803)" stroke-width="1.5" stroke-linecap="round" stroke-linejoin="round"/>
<defs>
<linearGradient id="paint0_linear_1748_1803" x1="18" y1="7" x2="18" y2="28" gradientUnits="userSpaceOnUse">
<stop stop-color="#323FF7"/>
<stop offset="1" stop-color="#33AEE5"/>
</linearGradient>
</defs>
</svg>
