<svg width="37" height="37" viewBox="0 0 37 37" fill="none" xmlns="http://www.w3.org/2000/svg">
<circle cx="18.5" cy="18.5" r="18.5" fill="white"/>
<path d="M14 10H12C11.4696 10 10.9609 10.2107 10.5858 10.5858C10.2107 10.9609 10 11.4696 10 12V26C10 26.5304 10.2107 27.0391 10.5858 27.4142C10.9609 27.7893 11.4696 28 12 28H24C24.5304 28 25.0391 27.7893 25.4142 27.4142C25.7893 27.0391 26 26.5304 26 26V24M22 10H24C24.5304 10 25.0391 10.2107 25.4142 10.5858C25.7893 10.9609 26 11.4696 26 12V16M27 20H17M17 20L21 16M17 20L21 24M15 8H21C21.5523 8 22 8.44772 22 9V11C22 11.5523 21.5523 12 21 12H15C14.4477 12 14 11.5523 14 11V9C14 8.44772 14.4477 8 15 8Z" stroke="url(#paint0_linear_1748_1812)" stroke-width="1.5" stroke-linecap="round" stroke-linejoin="round"/>
<defs>
<linearGradient id="paint0_linear_1748_1812" x1="18.5" y1="8" x2="18.5" y2="28" gradientUnits="userSpaceOnUse">
<stop stop-color="#323FF7"/>
<stop offset="1" stop-color="#33AEE5"/>
</linearGradient>
</defs>
</svg>
