<svg width="33" height="38" viewBox="0 0 33 38" fill="none" xmlns="http://www.w3.org/2000/svg">
<path d="M13.7086 34.3001C13.9914 34.817 14.3982 35.2461 14.888 35.5445C15.3779 35.8429 15.9335 36 16.4991 36C17.0647 36 17.6204 35.8429 18.1102 35.5445C18.6 35.2461 19.0068 34.817 19.2896 34.3001M2.42094 24.6543C2.21047 24.8977 2.07157 25.2004 2.02115 25.5256C1.97072 25.8508 2.01094 26.1844 2.13691 26.4859C2.26288 26.7874 2.46917 27.0438 2.73069 27.2238C2.99222 27.4039 3.29769 27.4999 3.60997 27.5001H29.3883C29.7005 27.5002 30.0061 27.4046 30.2677 27.2249C30.5294 27.0452 30.736 26.7891 30.8623 26.4878C30.9886 26.1865 31.0292 25.8529 30.9792 25.5277C30.9292 25.2025 30.7907 24.8997 30.5805 24.656C28.4377 22.3253 26.166 19.8484 26.166 12.2C26.166 9.49482 25.1475 6.9004 23.3346 4.98752C21.5217 3.07464 19.0629 2 16.4991 2C13.9353 2 11.4765 3.07464 9.66362 4.98752C7.85073 6.9004 6.83226 9.49482 6.83226 12.2C6.83226 19.8484 4.55893 22.3253 2.42094 24.6543Z" stroke="url(#paint0_linear_1748_1834)" stroke-width="3" stroke-linecap="round" stroke-linejoin="round"/>
<defs>
<linearGradient id="paint0_linear_1748_1834" x1="16.5" y1="2" x2="16.5" y2="36" gradientUnits="userSpaceOnUse">
<stop stop-color="#323FF7"/>
<stop offset="1" stop-color="#33AEE5"/>
</linearGradient>
</defs>
</svg>
