<svg width="45" height="82" viewBox="0 0 45 82" fill="none" xmlns="http://www.w3.org/2000/svg">
<g clip-path="url(#clip0_1240_1564)">
<path d="M13.7439 61.6529C4.55117 12.4797 7.82305 0.181328 7.82305 0.181328C7.82305 0.181328 15.1345 9.48892 24.3277 58.6615L13.7439 61.6529Z" fill="#222630"/>
<path d="M34.4286 68.0135C34.7441 60.9024 29.2593 54.883 22.1781 54.5688C15.0968 54.2547 9.10059 59.7647 8.78511 66.8759C8.46962 73.987 13.9544 80.0064 21.0356 80.3205C28.1169 80.6347 34.1131 75.1247 34.4286 68.0135Z" fill="#CCCCCC"/>
<path d="M32.8179 67.9418C33.0938 61.724 28.2981 56.4608 22.1064 56.1861C15.9148 55.9114 10.6718 60.7292 10.396 66.947C10.1201 73.1648 14.9158 78.428 21.1075 78.7027C27.2991 78.9774 32.5421 74.1596 32.8179 67.9418Z" fill="#A6A9B2"/>
</g>
<defs>
<clipPath id="clip0_1240_1564">
<rect width="79.9769" height="41.0316" fill="white" transform="translate(0.198242 79.8984) rotate(-87.4597)"/>
</clipPath>
</defs>
</svg>
