<svg width="37" height="37" viewBox="0 0 37 37" fill="none" xmlns="http://www.w3.org/2000/svg">
<circle cx="18.5" cy="18.5" r="18.5" fill="white"/>
<path d="M21 24L25 20M25 20L29 24M25 20V28M23 8V12M28 17.343V12C28 11.4696 27.7893 10.9609 27.4142 10.5858C27.0391 10.2107 26.5304 10 26 10H12C11.4696 10 10.9609 10.2107 10.5858 10.5858C10.2107 10.9609 10 11.4696 10 12V26C10 26.5304 10.2107 27.0391 10.5858 27.4142C10.9609 27.7893 11.4696 28 12 28H21M10 16H28M15 8V12" stroke="url(#paint0_linear_1748_1806)" stroke-width="1.5" stroke-linecap="round" stroke-linejoin="round"/>
<defs>
<linearGradient id="paint0_linear_1748_1806" x1="19.5" y1="8" x2="19.5" y2="28" gradientUnits="userSpaceOnUse">
<stop stop-color="#323FF7"/>
<stop offset="1" stop-color="#33AEE5"/>
</linearGradient>
</defs>
</svg>
