<svg width="36" height="35" viewBox="0 0 36 35" fill="none" xmlns="http://www.w3.org/2000/svg">
<path d="M22.7968 33V24.8421C22.7968 24.4094 22.6283 23.9944 22.3283 23.6884C22.0283 23.3824 21.6214 23.2105 21.1972 23.2105H14.7986C14.3744 23.2105 13.9675 23.3824 13.6675 23.6884C13.3675 23.9944 13.199 24.4094 13.199 24.8421V33M27.2342 15.5584C26.9008 15.2328 26.4569 15.0511 25.9953 15.0511C25.5337 15.0511 25.0899 15.2328 24.7564 15.5584C24.0126 16.2821 23.0241 16.6858 21.9962 16.6858C20.9683 16.6858 19.9798 16.2821 19.236 15.5584C18.9026 15.2333 18.4592 15.0519 17.9979 15.0519C17.5366 15.0519 17.0932 15.2333 16.7598 15.5584C16.0159 16.2825 15.0271 16.6865 13.9988 16.6865C12.9705 16.6865 11.9817 16.2825 11.2378 15.5584C10.9044 15.2328 10.4605 15.0511 9.99889 15.0511C9.53726 15.0511 9.09344 15.2328 8.75997 15.5584C8.04148 16.2577 7.09358 16.6594 6.10077 16.6851C5.10796 16.7109 4.14127 16.3589 3.38886 15.6977C2.63646 15.0366 2.15217 14.1135 2.03026 13.1082C1.90834 12.1029 2.15753 11.0873 2.72932 10.2591L7.35069 3.43253C7.64391 2.9912 8.03868 2.62988 8.50047 2.38015C8.96227 2.13042 9.47701 1.9999 9.99969 2H25.9961C26.5173 1.9998 27.0306 2.12945 27.4914 2.37769C27.9522 2.62593 28.3466 2.98524 28.6403 3.42437L33.2713 10.2639C33.8432 11.0928 34.0921 12.1092 33.9694 13.115C33.8467 14.1209 33.3613 15.0441 32.6077 15.7048C31.8541 16.3655 30.8863 16.7163 29.893 16.689C28.8996 16.6616 27.9518 16.258 27.2342 15.5568M5.20077 16.6026V29.7368C5.20077 30.6023 5.53784 31.4323 6.13782 32.0442C6.7378 32.6562 7.55155 33 8.40005 33H27.5958C28.4443 33 29.258 32.6562 29.858 32.0442C30.458 31.4323 30.795 30.6023 30.795 29.7368V16.6026" stroke="url(#paint0_linear_2008_5914)" stroke-width="2.5" stroke-linecap="round" stroke-linejoin="round"/>
<defs>
<linearGradient id="paint0_linear_2008_5914" x1="18" y1="2" x2="18" y2="33" gradientUnits="userSpaceOnUse">
<stop stop-color="#323FF7"/>
<stop offset="1" stop-color="#33AEE5"/>
</linearGradient>
</defs>
</svg>
