<svg width="22" height="23" viewBox="0 0 22 23" fill="none" xmlns="http://www.w3.org/2000/svg">
<path d="M14.3333 13.6V15.91L16.1111 16.96M14.3333 3.1H16.5556C17.1449 3.1 17.7102 3.32125 18.1269 3.71508C18.5437 4.1089 18.7778 4.64305 18.7778 5.2V6.0736M5.44444 3.1H3.22222C2.63285 3.1 2.06762 3.32125 1.65087 3.71508C1.23413 4.1089 1 4.64305 1 5.2V19.9C1 20.457 1.23413 20.9911 1.65087 21.3849C2.06762 21.7787 2.63285 22 3.22222 22H5.44444M21 15.7C21 19.1794 18.0152 22 14.3333 22C10.6514 22 7.66667 19.1794 7.66667 15.7C7.66667 12.2206 10.6514 9.4 14.3333 9.4C18.0152 9.4 21 12.2206 21 15.7ZM6.55556 1H13.2222C13.8359 1 14.3333 1.4701 14.3333 2.05V4.15C14.3333 4.7299 13.8359 5.2 13.2222 5.2H6.55556C5.94191 5.2 5.44444 4.7299 5.44444 4.15V2.05C5.44444 1.4701 5.94191 1 6.55556 1Z" stroke="#979797" stroke-width="1.5" stroke-linecap="round" stroke-linejoin="round"/>
</svg>
