<svg width="19" height="19" viewBox="0 0 19 19" fill="none" xmlns="http://www.w3.org/2000/svg">
<path d="M12.5462 17.5592V10.6691C12.5462 10.4406 12.4472 10.2216 12.271 10.06C12.0949 9.89853 11.8559 9.80778 11.6068 9.80778H7.84919C7.60005 9.80778 7.36111 9.89853 7.18494 10.06C7.00877 10.2216 6.9098 10.4406 6.9098 10.6691V17.5592M1.27344 8.08525C1.27337 7.83468 1.33293 7.58711 1.44797 7.35982C1.563 7.13252 1.73073 6.93098 1.93947 6.76923L8.51522 1.60249C8.85433 1.33972 9.28398 1.19556 9.72798 1.19556C10.172 1.19556 10.6016 1.33972 10.9407 1.60249L17.5165 6.76923C17.7252 6.93098 17.893 7.13252 18.008 7.35982C18.123 7.58711 18.1826 7.83468 18.1825 8.08525V15.8367C18.1825 16.2935 17.9846 16.7316 17.6322 17.0547C17.2799 17.3777 16.802 17.5592 16.3037 17.5592H3.15223C2.65394 17.5592 2.17606 17.3777 1.82372 17.0547C1.47138 16.7316 1.27344 16.2935 1.27344 15.8367V8.08525Z" stroke="#818181" stroke-width="1.40909" stroke-linecap="round" stroke-linejoin="round"/>
</svg>
