<svg width="28" height="28" viewBox="0 0 28 28" fill="none" xmlns="http://www.w3.org/2000/svg">
<circle cx="14" cy="14" r="14" fill="url(#paint0_linear_1288_11767)"/>
<path d="M12.4246 20.6319C12.5468 20.8559 12.7225 21.0419 12.9341 21.1713C13.1457 21.3006 13.3857 21.3687 13.63 21.3687C13.8743 21.3687 14.1143 21.3006 14.3259 21.1713C14.5374 21.0419 14.7131 20.8559 14.8353 20.6319M7.54901 16.451C7.4581 16.5565 7.3981 16.6877 7.37632 16.8287C7.35454 16.9696 7.37191 17.1142 7.42632 17.2449C7.48074 17.3756 7.56984 17.4867 7.6828 17.5648C7.79577 17.6428 7.92772 17.6844 8.0626 17.6845H19.1973C19.3322 17.6846 19.4642 17.6431 19.5772 17.5652C19.6902 17.4873 19.7795 17.3763 19.834 17.2457C19.8886 17.1151 19.9061 16.9706 19.8845 16.8296C19.8629 16.6887 19.8031 16.5574 19.7123 16.4518C18.7867 15.4416 17.8055 14.368 17.8055 11.0529C17.8055 9.88037 17.3656 8.75585 16.5825 7.92674C15.7994 7.09763 14.7374 6.63184 13.63 6.63184C12.5225 6.63184 11.4605 7.09763 10.6774 7.92674C9.89436 8.75585 9.45444 9.88037 9.45444 11.0529C9.45444 14.368 8.4725 15.4416 7.54901 16.451Z" stroke="white" stroke-width="1.47368" stroke-linecap="round" stroke-linejoin="round"/>
<defs>
<linearGradient id="paint0_linear_1288_11767" x1="14" y1="0" x2="14" y2="28" gradientUnits="userSpaceOnUse">
<stop stop-color="#323FF7"/>
<stop offset="1" stop-color="#33AEE5"/>
</linearGradient>
</defs>
</svg>
