<svg width="23" height="23" viewBox="0 0 23 23" fill="none" xmlns="http://www.w3.org/2000/svg">
<path d="M21.2224 1.77722C20.0771 0.631187 18.5534 0 16.9329 0C15.3122 0 13.7891 0.631187 12.6432 1.77722L7.21014 7.21014L1.77687 12.6438C0.631187 13.7898 0 15.3134 0 16.9336C0 18.5538 0.631187 20.0774 1.77687 21.2228C2.9222 22.3688 4.44586 23 6.06638 23C7.6869 23 9.21021 22.3688 10.3559 21.2228L15.7892 15.7899L21.2224 10.3562C22.3681 9.21021 22.9991 7.68655 22.9991 6.06638C22.9991 4.44621 22.3681 2.92255 21.2224 1.77722ZM9.21214 20.079C8.37161 20.9194 7.25436 21.3825 6.06638 21.3825C4.87788 21.3825 3.76098 20.9196 2.92062 20.079C2.08027 19.2385 1.61771 18.1218 1.61771 16.9338C1.61771 15.7458 2.08062 14.628 2.92062 13.7877L7.78201 8.92594L14.0735 15.2182L9.21214 20.079ZM20.0787 9.21249L15.2173 14.0742L8.92577 7.78201L13.7872 2.92097C14.6275 2.08062 15.7448 1.61754 16.9329 1.61754C18.1212 1.61754 19.2381 2.08044 20.0785 2.92097C20.9189 3.76151 21.3814 4.87823 21.3814 6.06621C21.3814 7.25418 20.9187 8.37196 20.0787 9.21249Z" fill="#979797"/>
</svg>
