<svg width="18" height="19" viewBox="0 0 18 19" fill="none" xmlns="http://www.w3.org/2000/svg">
<path d="M5.07629 2.84096H3.31158C2.84355 2.84096 2.39469 3.01429 2.06375 3.32282C1.7328 3.63135 1.54688 4.0498 1.54688 4.48612V16.0023C1.54688 16.4386 1.7328 16.857 2.06375 17.1656C2.39469 17.4741 2.84355 17.6474 3.31158 17.6474H13.8998C14.3678 17.6474 14.8167 17.4741 15.1477 17.1656C15.4786 16.857 15.6645 16.4386 15.6645 16.0023V14.3571M12.1351 2.84096H13.8998C14.3678 2.84096 14.8167 3.01429 15.1477 3.32282C15.4786 3.63135 15.6645 4.0498 15.6645 4.48612V7.77645M16.5469 11.0668H7.72335M7.72335 11.0668L11.2528 7.77645M7.72335 11.0668L11.2528 14.3571M5.95864 1.1958H11.2528C11.7401 1.1958 12.1351 1.56408 12.1351 2.01838V3.66354C12.1351 4.11784 11.7401 4.48612 11.2528 4.48612H5.95864C5.47133 4.48612 5.07629 4.11784 5.07629 3.66354V2.01838C5.07629 1.56408 5.47133 1.1958 5.95864 1.1958Z" stroke="url(#paint0_linear_3936_105)" stroke-width="1.5" stroke-linecap="round" stroke-linejoin="round"/>
<defs>
<linearGradient id="paint0_linear_3936_105" x1="9.04688" y1="1.1958" x2="9.04688" y2="17.6474" gradientUnits="userSpaceOnUse">
<stop stop-color="#323FF7"/>
<stop offset="1" stop-color="#33ADE6"/>
</linearGradient>
</defs>
</svg>
