<svg width="23" height="23" viewBox="0 0 23 23" fill="none" xmlns="http://www.w3.org/2000/svg">
<path d="M18.5 22C18.5 20.1435 17.7625 18.363 16.4497 17.0503C15.137 15.7375 13.3565 15 11.5 15M11.5 15C9.64348 15 7.86301 15.7375 6.55025 17.0503C5.2375 18.363 4.5 20.1435 4.5 22M11.5 15C14.0773 15 16.1667 12.9107 16.1667 10.3333C16.1667 7.756 14.0773 5.66667 11.5 5.66667C8.92267 5.66667 6.83333 7.756 6.83333 10.3333C6.83333 12.9107 8.92267 15 11.5 15ZM3.33333 1H19.6667C20.9553 1 22 2.04467 22 3.33333V19.6667C22 20.9553 20.9553 22 19.6667 22H3.33333C2.04467 22 1 20.9553 1 19.6667V3.33333C1 2.04467 2.04467 1 3.33333 1Z" stroke="#979797" stroke-width="1.5" stroke-linecap="round" stroke-linejoin="round"/>
</svg>
