<svg width="24" height="23" viewBox="0 0 24 23" fill="none" xmlns="http://www.w3.org/2000/svg">
<path d="M15.2978 22V16.4737C15.2978 16.1805 15.182 15.8994 14.9757 15.6921C14.7695 15.4849 14.4897 15.3684 14.1981 15.3684H9.79905C9.50738 15.3684 9.22765 15.4849 9.02141 15.6921C8.81516 15.8994 8.6993 16.1805 8.6993 16.4737V22M18.3485 10.1847C18.1193 9.96417 17.8142 9.84105 17.4968 9.84105C17.1794 9.84105 16.8743 9.96417 16.645 10.1847C16.1336 10.6749 15.4541 10.9484 14.7474 10.9484C14.0407 10.9484 13.3611 10.6749 12.8498 10.1847C12.6206 9.96449 12.3157 9.84158 11.9986 9.84158C11.6814 9.84158 11.3766 9.96449 11.1473 10.1847C10.6359 10.6753 9.95613 10.9489 9.24917 10.9489C8.54222 10.9489 7.86243 10.6753 7.351 10.1847C7.12174 9.96417 6.81661 9.84105 6.49924 9.84105C6.18186 9.84105 5.87674 9.96417 5.64748 10.1847C5.15352 10.6585 4.50184 10.9305 3.81928 10.948C3.13672 10.9654 2.47212 10.727 1.95484 10.2791C1.43756 9.83121 1.10461 9.20591 1.0208 8.5249C0.936987 7.84389 1.1083 7.1559 1.50141 6.59484L4.6786 1.97042C4.88019 1.67146 5.15159 1.42669 5.46908 1.25752C5.78656 1.08835 6.14045 0.999934 6.49979 1H17.4973C17.8556 0.999862 18.2085 1.08769 18.5253 1.25586C18.8422 1.42402 19.1133 1.66742 19.3152 1.96489L22.499 6.59816C22.8922 7.15966 23.0633 7.84817 22.979 8.52954C22.8946 9.2109 22.5609 9.8363 22.0428 10.2839C21.5247 10.7314 20.8594 10.9691 20.1764 10.9506C19.4935 10.9321 18.8418 10.6586 18.3485 10.1836M3.20053 10.8921V19.7895C3.20053 20.3757 3.43226 20.938 3.84475 21.3526C4.25724 21.7671 4.81669 22 5.40004 22H18.5971C19.1804 22 19.7399 21.7671 20.1524 21.3526C20.5649 20.938 20.7966 20.3757 20.7966 19.7895V10.8921" stroke="url(#paint0_linear_1664_3943)" stroke-width="1.5" stroke-linecap="round" stroke-linejoin="round"/>
<defs>
<linearGradient id="paint0_linear_1664_3943" x1="12" y1="1" x2="12" y2="22" gradientUnits="userSpaceOnUse">
<stop stop-color="#323FF7"/>
<stop offset="1" stop-color="#33AEE5"/>
</linearGradient>
</defs>
</svg>
