<svg width="20" height="19" viewBox="0 0 20 19" fill="none" xmlns="http://www.w3.org/2000/svg">
<path d="M11.3363 14.2867L14.8962 11.014M14.8962 11.014L18.456 14.2867M14.8962 11.014V17.5594M13.1163 1.1958V4.46853M17.566 8.84007V4.46853C17.566 4.03454 17.3785 3.61832 17.0447 3.31144C16.7109 3.00457 16.2582 2.83216 15.7861 2.83216H3.32678C2.85472 2.83216 2.40199 3.00457 2.0682 3.31144C1.7344 3.61832 1.54688 4.03454 1.54688 4.46853V15.9231C1.54688 16.3571 1.7344 16.7733 2.0682 17.0802C2.40199 17.387 2.85472 17.5594 3.32678 17.5594H11.3363M1.54688 7.74126H17.566M5.99664 1.1958V4.46853" stroke="url(#paint0_linear_3936_17)" stroke-width="1.40909" stroke-linecap="round" stroke-linejoin="round"/>
<defs>
<linearGradient id="paint0_linear_3936_17" x1="10.0014" y1="1.1958" x2="10.0014" y2="17.5594" gradientUnits="userSpaceOnUse">
<stop stop-color="#3240F7"/>
<stop offset="1" stop-color="#34ADE6"/>
</linearGradient>
</defs>
</svg>
