<svg width="72" height="72" viewBox="0 0 72 72" fill="none" xmlns="http://www.w3.org/2000/svg">
<circle cx="36" cy="36" r="36" fill="#F4F4F4"/>
<path d="M36 18C29.9021 18.0069 24.056 20.4405 19.7442 24.7667C15.4323 29.093 13.0069 34.9587 13 41.077C13 41.689 13.2423 42.276 13.6737 42.7088C14.105 43.1416 14.69 43.3847 15.3 43.3847H21.4333C22.0433 43.3847 22.6283 43.1416 23.0597 42.7088C23.491 42.276 23.7333 41.689 23.7333 41.077C23.7372 37.814 25.0308 34.6857 27.3304 32.3784C29.63 30.0711 32.7479 28.7731 36 28.7693C38.1809 28.7663 40.322 29.3548 42.197 30.4723L35.9632 34.1539C34.6017 34.1612 33.2727 34.5725 32.1437 35.336C31.0146 36.0995 30.136 37.1811 29.6183 38.4447C29.1006 39.7082 28.9671 41.0971 29.2345 42.4366C29.5019 43.7761 30.1583 45.0063 31.1211 45.9723C32.0838 46.9382 33.3099 47.5969 34.6449 47.8652C35.98 48.1335 37.3643 47.9995 38.6236 47.4801C39.8829 46.9607 40.9608 46.079 41.7218 44.9462C42.4828 43.8134 42.8927 42.48 42.9 41.1139L46.5708 34.8593C47.6841 36.7407 48.27 38.889 48.2667 41.077C48.2667 41.689 48.509 42.276 48.9403 42.7088C49.3717 43.1416 49.9567 43.3847 50.5667 43.3847H56.7C57.31 43.3847 57.895 43.1416 58.3263 42.7088C58.7577 42.276 59 41.689 59 41.077C58.9931 34.9587 56.5677 29.093 52.2558 24.7667C47.944 20.4405 42.0979 18.0069 36 18ZM21.3827 25.3231C25.155 21.7873 30.0743 19.7396 35.2333 19.5577V27.27C32.1113 27.4414 29.1411 28.6772 26.8146 30.7731L21.3827 25.3231ZM22.2 41.077C22.2 41.281 22.1192 41.4767 21.9754 41.6209C21.8317 41.7652 21.6367 41.8462 21.4333 41.8462H15.3C15.0967 41.8462 14.9017 41.7652 14.7579 41.6209C14.6141 41.4767 14.5333 41.281 14.5333 41.077C14.5302 35.6313 16.5913 30.3881 20.2987 26.4108L25.7305 31.8608C23.459 34.3896 22.2013 37.6727 22.2 41.077ZM36.7667 27.2608V19.5577C41.9257 19.7396 46.845 21.7873 50.6173 25.3231L48.8539 27.0923C48.6562 27.0357 48.449 27.0197 48.245 27.0454C48.0409 27.071 47.8441 27.1377 47.6664 27.2416L43.6759 29.5985C41.6278 28.2028 39.2389 27.3945 36.7667 27.2608ZM48.4698 28.59L42.4967 38.7693C42.1524 37.8009 41.5981 36.9212 40.8739 36.1938C40.1496 35.4664 39.2733 34.9095 38.3084 34.5631L48.4698 28.59ZM36 46.4616C34.9386 46.4616 33.901 46.1458 33.0184 45.5542C32.1359 44.9625 31.448 44.1215 31.0418 43.1376C30.6357 42.1537 30.5294 41.071 30.7365 40.0265C30.9435 38.982 31.4547 38.0225 32.2052 37.2695C32.9557 36.5164 33.912 36.0036 34.953 35.7958C35.994 35.5881 37.0731 35.6947 38.0537 36.1022C39.0344 36.5098 39.8725 37.2 40.4622 38.0855C41.0519 38.971 41.3667 40.012 41.3667 41.077C41.3648 42.5045 40.7988 43.8731 39.7928 44.8825C38.7867 45.8919 37.4228 46.4598 36 46.4616ZM56.7 41.8462H50.5667C50.3633 41.8462 50.1683 41.7652 50.0246 41.6209C49.8808 41.4767 49.8 41.281 49.8 41.077C49.8032 38.3296 48.9808 35.6452 47.4402 33.3739L49.7916 29.3677C49.8943 29.1895 49.9603 28.9924 49.9857 28.7882C50.0111 28.5839 49.9954 28.3766 49.9395 28.1785L51.7029 26.4093C55.41 30.3872 57.4706 35.6309 57.4667 41.077C57.4667 41.281 57.3859 41.4767 57.2421 41.6209C57.0983 41.7652 56.9033 41.8462 56.7 41.8462Z" fill="#4472F4"/>
</svg>
